<svg width="512" height="512" viewBox="0 0 512 512" fill="none" xmlns="http://www.w3.org/2000/svg">
<path fill-rule="evenodd" clip-rule="evenodd" d="M64 128C64 122.342 66.2476 116.916 70.2484 112.915C74.2492 108.914 79.6754 106.667 85.3333 106.667H426.667C432.325 106.667 437.751 108.914 441.752 112.915C445.752 116.916 448 122.342 448 128C448 133.658 445.752 139.084 441.752 143.085C437.751 147.086 432.325 149.333 426.667 149.333H85.3333C79.6754 149.333 74.2492 147.086 70.2484 143.085C66.2476 139.084 64 133.658 64 128ZM64 256C64 250.342 66.2476 244.916 70.2484 240.915C74.2492 236.914 79.6754 234.667 85.3333 234.667H298.667C304.325 234.667 309.751 236.914 313.752 240.915C317.752 244.916 320 250.342 320 256C320 261.658 317.752 267.084 313.752 271.085C309.751 275.086 304.325 277.333 298.667 277.333H85.3333C79.6754 277.333 74.2492 275.086 70.2484 271.085C66.2476 267.084 64 261.658 64 256ZM64 384C64 378.342 66.2476 372.916 70.2484 368.915C74.2492 364.914 79.6754 362.667 85.3333 362.667H192C197.658 362.667 203.084 364.914 207.085 368.915C211.086 372.916 213.333 378.342 213.333 384C213.333 389.658 211.086 395.084 207.085 399.085C203.084 403.086 197.658 405.333 192 405.333H85.3333C79.6754 405.333 74.2492 403.086 70.2484 399.085C66.2476 395.084 64 389.658 64 384Z" fill="black"/>
</svg>
